<svg xmlns="http://www.w3.org/2000/svg" xmlns:xlink="http://www.w3.org/1999/xlink" width="500" zoomAndPan="magnify" viewBox="0 0 375 374.999991" height="500" preserveAspectRatio="xMidYMid meet" version="1.0"><defs><clipPath id="336d6ca27d"><path d="M 132 112.5 L 261 112.5 L 261 262.5 L 132 262.5 Z M 132 112.5 " clip-rule="nonzero"/></clipPath><clipPath id="b9e8ecf28a"><path d="M 134 133 L 261 133 L 261 262.5 L 134 262.5 Z M 134 133 " clip-rule="nonzero"/></clipPath><clipPath id="7d0b0cc856"><path d="M 132 133 L 261 133 L 261 262.5 L 132 262.5 Z M 132 133 " clip-rule="nonzero"/></clipPath></defs><g clip-path="url(#336d6ca27d)"><path fill="#3bbec5" d="M 260.582031 234.609375 C 261.019531 236.308594 260 238.046875 258.296875 238.484375 L 167.414062 261.996094 C 165.714844 262.433594 163.976562 261.414062 163.539062 259.714844 L 132.671875 140.390625 C 132.234375 138.691406 133.253906 136.953125 134.953125 136.515625 L 225.839844 113.003906 C 227.539062 112.566406 229.273438 113.585938 229.714844 115.289062 L 260.582031 234.609375 " fill-opacity="1" fill-rule="nonzero"/></g><path fill="#5bc9cf" d="M 242.269531 190.480469 L 223.578125 118.222656 L 152.457031 136.617188 C 152.449219 136.5 152.441406 136.386719 152.433594 136.269531 C 152.351562 135.265625 152.296875 134.261719 152.261719 133.257812 L 225.207031 114.386719 C 225.449219 114.324219 225.695312 114.292969 225.9375 114.292969 C 227.230469 114.292969 228.410156 115.164062 228.75 116.472656 L 246.800781 186.261719 C 245.386719 187.769531 243.875 189.179688 242.269531 190.480469 " fill-opacity="1" fill-rule="nonzero"/><g clip-path="url(#b9e8ecf28a)"><path fill="#bdbcbd" d="M 166.613281 262.097656 L 166.613281 262.097656 M 166.613281 262.097656 C 166.875 262.097656 167.136719 262.066406 167.398438 261.996094 C 167.136719 262.066406 166.875 262.097656 166.613281 262.097656 M 167.40625 261.996094 C 167.40625 261.996094 167.410156 261.996094 167.414062 261.996094 L 258.296875 238.484375 C 259.734375 238.113281 260.683594 236.820312 260.683594 235.40625 C 260.683594 236.820312 259.734375 238.113281 258.296875 238.484375 L 167.414062 261.996094 C 167.410156 261.996094 167.40625 261.996094 167.40625 261.996094 M 163.554688 259.773438 C 163.554688 259.769531 163.554688 259.769531 163.554688 259.769531 C 163.554688 259.769531 163.554688 259.769531 163.554688 259.773438 M 163.546875 259.746094 C 163.546875 259.738281 163.542969 259.730469 163.542969 259.722656 C 163.542969 259.730469 163.546875 259.738281 163.546875 259.746094 M 260.582031 234.609375 L 249.574219 192.058594 L 260.582031 234.609375 M 134.953125 136.515625 L 145.691406 133.738281 L 134.953125 136.515625 " fill-opacity="1" fill-rule="nonzero"/></g><g clip-path="url(#7d0b0cc856)"><path fill="#2c8b92" d="M 166.613281 262.097656 C 165.21875 262.09375 163.945312 261.171875 163.554688 259.773438 C 163.554688 259.769531 163.554688 259.769531 163.554688 259.769531 C 163.554688 259.761719 163.550781 259.753906 163.546875 259.746094 C 163.546875 259.738281 163.542969 259.730469 163.542969 259.722656 C 163.542969 259.71875 163.539062 259.71875 163.539062 259.714844 L 161.902344 253.378906 L 163.113281 253.066406 L 164.277344 257.554688 L 214.882812 244.464844 L 215.308594 247.972656 C 215.308594 247.972656 215.78125 248.164062 216.378906 248.164062 C 216.675781 248.164062 217.003906 248.117188 217.320312 247.972656 L 217.839844 243.703125 L 253.640625 234.441406 L 243.984375 197.105469 C 244.566406 196.65625 245.140625 196.195312 245.703125 195.71875 C 247.070312 194.566406 248.355469 193.339844 249.574219 192.058594 L 260.582031 234.609375 C 260.648438 234.875 260.683594 235.144531 260.683594 235.40625 C 260.683594 236.820312 259.734375 238.113281 258.296875 238.484375 L 167.414062 261.996094 C 167.410156 261.996094 167.40625 261.996094 167.40625 261.996094 C 167.402344 261.996094 167.402344 261.996094 167.398438 261.996094 C 167.136719 262.066406 166.875 262.097656 166.613281 262.097656 M 167.949219 251.855469 C 167.886719 251.855469 167.820312 251.851562 167.757812 251.839844 C 168.25 251.605469 168.523438 251.046875 168.378906 250.5 C 168.246094 249.972656 167.769531 249.625 167.25 249.625 C 167.15625 249.625 167.058594 249.636719 166.960938 249.660156 L 166.894531 249.675781 C 167.070312 249.453125 167.320312 249.285156 167.613281 249.207031 C 167.730469 249.179688 167.84375 249.164062 167.953125 249.164062 C 168.550781 249.164062 169.097656 249.566406 169.253906 250.171875 C 169.441406 250.890625 169.007812 251.625 168.289062 251.8125 C 168.175781 251.839844 168.0625 251.855469 167.949219 251.855469 M 161.316406 251.121094 L 160.292969 247.164062 L 161.507812 246.847656 L 162.53125 250.804688 L 161.316406 251.121094 M 166.355469 245.691406 C 166.257812 245.691406 166.164062 245.679688 166.070312 245.660156 C 166.613281 245.449219 166.921875 244.859375 166.773438 244.28125 C 166.636719 243.757812 166.164062 243.410156 165.644531 243.410156 C 165.550781 243.410156 165.453125 243.421875 165.355469 243.445312 C 165.527344 243.253906 165.753906 243.109375 166.019531 243.042969 C 166.132812 243.011719 166.246094 243 166.355469 243 C 166.957031 243 167.5 243.402344 167.660156 244.007812 C 167.84375 244.726562 167.414062 245.460938 166.695312 245.648438 C 166.582031 245.675781 166.46875 245.691406 166.355469 245.691406 M 159.710938 244.90625 L 158.699219 241.007812 L 159.914062 240.695312 L 160.921875 244.59375 L 159.710938 244.90625 M 164.761719 239.527344 C 164.671875 239.527344 164.578125 239.519531 164.492188 239.5 C 164.5 239.496094 164.511719 239.492188 164.519531 239.484375 C 164.523438 239.484375 164.523438 239.484375 164.527344 239.484375 C 164.527344 239.484375 164.527344 239.484375 164.53125 239.484375 C 164.53125 239.484375 164.53125 239.480469 164.53125 239.480469 C 164.53125 239.480469 164.535156 239.480469 164.535156 239.480469 C 164.539062 239.480469 164.539062 239.480469 164.539062 239.480469 C 164.539062 239.476562 164.539062 239.476562 164.542969 239.476562 C 164.546875 239.476562 164.546875 239.472656 164.546875 239.472656 C 164.546875 239.472656 164.550781 239.472656 164.550781 239.472656 C 164.550781 239.472656 164.554688 239.472656 164.554688 239.472656 C 164.554688 239.472656 164.554688 239.472656 164.558594 239.46875 C 164.722656 239.390625 164.863281 239.273438 164.972656 239.136719 C 164.972656 239.132812 164.972656 239.132812 164.972656 239.132812 C 164.972656 239.132812 164.976562 239.128906 164.976562 239.128906 C 165.1875 238.851562 165.273438 238.488281 165.179688 238.125 C 165.042969 237.601562 164.570312 237.253906 164.050781 237.253906 C 163.957031 237.253906 163.859375 237.265625 163.761719 237.289062 L 163.753906 237.292969 C 163.925781 237.097656 164.15625 236.949219 164.425781 236.878906 C 164.539062 236.847656 164.652344 236.835938 164.761719 236.835938 C 165.363281 236.835938 165.90625 237.238281 166.0625 237.84375 C 166.25 238.5625 165.820312 239.296875 165.101562 239.484375 C 164.988281 239.511719 164.875 239.527344 164.761719 239.527344 M 158.117188 238.75 L 157.085938 234.761719 L 158.300781 234.449219 L 159.332031 238.4375 L 158.117188 238.75 M 163.167969 233.363281 C 163.023438 233.363281 162.886719 233.339844 162.753906 233.296875 C 162.804688 233.28125 162.859375 233.261719 162.90625 233.242188 C 162.90625 233.242188 162.910156 233.242188 162.910156 233.242188 C 162.910156 233.242188 162.910156 233.238281 162.914062 233.238281 C 162.914062 233.238281 162.917969 233.238281 162.917969 233.238281 C 162.917969 233.238281 162.921875 233.238281 162.921875 233.234375 C 163.425781 233.003906 163.707031 232.4375 163.566406 231.882812 C 163.429688 231.355469 162.957031 231.007812 162.4375 231.007812 C 162.378906 231.007812 162.324219 231.011719 162.261719 231.019531 C 162.417969 230.878906 162.613281 230.769531 162.832031 230.714844 C 162.945312 230.683594 163.058594 230.671875 163.167969 230.671875 C 163.769531 230.671875 164.3125 231.074219 164.46875 231.679688 C 164.65625 232.398438 164.222656 233.132812 163.507812 233.320312 C 163.390625 233.347656 163.277344 233.363281 163.167969 233.363281 M 156.5 232.507812 L 155.46875 228.519531 L 156.683594 228.203125 L 157.714844 232.191406 L 156.5 232.507812 M 161.574219 227.199219 C 161.382812 227.199219 161.195312 227.160156 161.027344 227.082031 L 161.113281 227.058594 C 161.113281 227.058594 161.117188 227.058594 161.117188 227.058594 C 161.167969 227.046875 161.21875 227.027344 161.265625 227.007812 C 161.265625 227.007812 161.265625 227.007812 161.269531 227.007812 C 161.269531 227.007812 161.269531 227.007812 161.273438 227.003906 C 161.796875 226.785156 162.097656 226.207031 161.949219 225.640625 C 161.816406 225.113281 161.339844 224.765625 160.824219 224.765625 C 160.808594 224.765625 160.792969 224.765625 160.78125 224.765625 C 160.914062 224.667969 161.066406 224.59375 161.238281 224.550781 C 161.351562 224.519531 161.460938 224.507812 161.574219 224.507812 C 162.171875 224.507812 162.71875 224.910156 162.875 225.515625 C 163.0625 226.234375 162.628906 226.96875 161.910156 227.15625 C 161.796875 227.183594 161.683594 227.199219 161.574219 227.199219 M 154.886719 226.261719 L 153.898438 222.449219 L 155.113281 222.136719 L 156.101562 225.949219 L 154.886719 226.261719 M 159.976562 221.035156 C 159.84375 221.035156 159.714844 221.015625 159.589844 220.976562 C 160.1875 220.796875 160.535156 220.175781 160.378906 219.570312 C 160.246094 219.042969 159.769531 218.695312 159.253906 218.695312 C 159.1875 218.695312 159.121094 218.699219 159.054688 218.710938 C 159.214844 218.5625 159.414062 218.445312 159.640625 218.386719 C 159.757812 218.359375 159.867188 218.34375 159.980469 218.34375 C 160.578125 218.34375 161.125 218.746094 161.28125 219.351562 C 161.46875 220.070312 161.035156 220.804688 160.316406 220.992188 C 160.203125 221.019531 160.089844 221.035156 159.976562 221.035156 M 153.316406 220.191406 L 152.324219 216.351562 L 153.535156 216.035156 L 154.53125 219.878906 L 153.316406 220.191406 M 158.382812 214.871094 C 158.292969 214.871094 158.199219 214.859375 158.113281 214.84375 C 158.191406 214.8125 158.265625 214.769531 158.335938 214.722656 C 158.335938 214.722656 158.335938 214.722656 158.339844 214.71875 C 158.726562 214.449219 158.929688 213.957031 158.800781 213.46875 C 158.777344 213.382812 158.746094 213.296875 158.707031 213.21875 L 159.53125 214.226562 C 159.355469 214.515625 159.074219 214.738281 158.722656 214.828125 C 158.609375 214.855469 158.496094 214.871094 158.382812 214.871094 M 151.738281 214.09375 L 150.707031 210.105469 L 151.921875 209.792969 L 152.953125 213.78125 L 151.738281 214.09375 M 158.40625 212.855469 C 158.203125 212.691406 157.945312 212.597656 157.671875 212.597656 C 157.578125 212.597656 157.480469 212.609375 157.382812 212.632812 L 157.375 212.636719 C 157.519531 212.472656 157.703125 212.339844 157.921875 212.261719 L 158.40625 212.855469 M 150.121094 207.847656 L 149.121094 203.980469 L 150.335938 203.664062 L 151.339844 207.535156 L 150.121094 207.847656 M 148.535156 201.722656 L 148.195312 200.398438 L 149.152344 201.5625 L 148.535156 201.722656 M 154.675781 195.84375 L 154.027344 195.054688 C 154.023438 195.007812 154.015625 194.960938 154.003906 194.914062 C 153.898438 194.519531 153.609375 194.226562 153.25 194.101562 L 153.019531 193.820312 C 153.09375 193.785156 153.175781 193.753906 153.265625 193.730469 C 153.378906 193.703125 153.492188 193.6875 153.601562 193.6875 C 154.199219 193.6875 154.746094 194.089844 154.902344 194.695312 C 155.011719 195.109375 154.914062 195.527344 154.675781 195.84375 M 152.003906 190.214844 C 151.90625 190.214844 151.804688 190.203125 151.707031 190.179688 C 151.835938 190.132812 151.953125 190.0625 152.050781 189.976562 C 152.378906 189.699219 152.535156 189.246094 152.421875 188.800781 C 152.285156 188.273438 151.8125 187.925781 151.292969 187.925781 C 151.203125 187.925781 151.109375 187.9375 151.015625 187.960938 C 151.183594 187.773438 151.410156 187.636719 151.667969 187.566406 C 151.785156 187.539062 151.894531 187.523438 152.007812 187.523438 C 152.605469 187.523438 153.152344 187.925781 153.308594 188.53125 C 153.496094 189.25 153.0625 189.984375 152.34375 190.171875 C 152.230469 190.199219 152.117188 190.214844 152.003906 190.214844 M 150.410156 184.050781 C 150.261719 184.050781 150.109375 184.023438 149.972656 183.976562 C 149.972656 183.976562 149.976562 183.976562 149.976562 183.976562 C 149.976562 183.972656 149.980469 183.972656 149.980469 183.972656 C 150.597656 183.808594 150.964844 183.175781 150.804688 182.554688 C 150.671875 182.03125 150.195312 181.679688 149.675781 181.679688 C 149.628906 181.679688 149.578125 181.683594 149.527344 181.691406 C 149.679688 181.558594 149.867188 181.457031 150.074219 181.402344 C 150.191406 181.375 150.300781 181.359375 150.414062 181.359375 C 151.011719 181.359375 151.558594 181.761719 151.714844 182.367188 C 151.898438 183.085938 151.46875 183.820312 150.75 184.007812 C 150.636719 184.035156 150.523438 184.050781 150.410156 184.050781 M 144.199219 183.058594 L 143.484375 182.191406 L 142.710938 179.191406 L 143.925781 178.878906 L 144.957031 182.867188 L 144.199219 183.058594 M 148.816406 177.886719 C 148.617188 177.886719 148.425781 177.84375 148.25 177.757812 L 148.351562 177.734375 C 148.976562 177.570312 149.351562 176.9375 149.191406 176.3125 C 149.054688 175.789062 148.582031 175.4375 148.0625 175.4375 C 148.058594 175.4375 148.050781 175.4375 148.046875 175.4375 C 148.175781 175.347656 148.320312 175.28125 148.480469 175.238281 C 148.59375 175.207031 148.707031 175.195312 148.820312 175.195312 C 149.417969 175.195312 149.964844 175.597656 150.121094 176.203125 C 150.304688 176.921875 149.875 177.65625 149.15625 177.84375 C 149.042969 177.871094 148.929688 177.886719 148.816406 177.886719 M 142.125 176.933594 L 141.175781 173.253906 L 142.386719 172.941406 L 143.339844 176.621094 L 142.125 176.933594 M 147.222656 171.722656 C 147.160156 171.722656 147.101562 171.71875 147.042969 171.710938 C 147.199219 171.632812 147.335938 171.519531 147.441406 171.386719 C 147.65625 171.113281 147.75 170.738281 147.652344 170.375 C 147.519531 169.847656 147.046875 169.5 146.527344 169.5 C 146.429688 169.5 146.332031 169.511719 146.234375 169.535156 L 146.15625 169.558594 C 146.332031 169.328125 146.582031 169.152344 146.886719 169.074219 C 147 169.042969 147.113281 169.03125 147.226562 169.03125 C 147.824219 169.03125 148.367188 169.433594 148.523438 170.039062 C 148.710938 170.757812 148.277344 171.492188 147.5625 171.679688 C 147.445312 171.707031 147.335938 171.722656 147.222656 171.722656 M 140.589844 170.996094 L 139.558594 167.011719 L 140.773438 166.695312 L 141.804688 170.683594 L 140.589844 170.996094 M 145.628906 165.558594 C 145.515625 165.558594 145.410156 165.542969 145.304688 165.519531 C 145.867188 165.316406 146.191406 164.71875 146.039062 164.128906 C 145.902344 163.605469 145.429688 163.253906 144.910156 163.253906 C 144.828125 163.253906 144.742188 163.265625 144.65625 163.285156 C 144.820312 163.109375 145.039062 162.976562 145.292969 162.910156 C 145.40625 162.882812 145.519531 162.867188 145.628906 162.867188 C 146.226562 162.867188 146.773438 163.269531 146.929688 163.875 C 147.117188 164.597656 146.683594 165.328125 145.964844 165.515625 C 145.851562 165.542969 145.738281 165.558594 145.628906 165.558594 M 138.976562 164.753906 L 137.996094 160.96875 L 139.210938 160.652344 L 140.191406 164.441406 L 138.976562 164.753906 M 144.035156 159.394531 C 144 159.394531 143.964844 159.394531 143.929688 159.390625 C 144.113281 159.285156 144.261719 159.128906 144.363281 158.949219 C 144.507812 158.699219 144.554688 158.390625 144.476562 158.089844 C 144.339844 157.5625 143.867188 157.214844 143.347656 157.214844 C 143.25 157.214844 143.152344 157.226562 143.054688 157.25 L 142.925781 157.285156 C 143.105469 157.027344 143.371094 156.832031 143.695312 156.746094 C 143.8125 156.71875 143.921875 156.703125 144.035156 156.703125 C 144.632812 156.703125 145.179688 157.105469 145.335938 157.710938 C 145.523438 158.429688 145.089844 159.164062 144.371094 159.351562 C 144.257812 159.382812 144.144531 159.394531 144.035156 159.394531 M 137.414062 158.710938 L 136.382812 154.726562 L 137.59375 154.410156 L 138.625 158.398438 L 137.414062 158.710938 M 142.4375 153.230469 C 142.355469 153.230469 142.273438 153.222656 142.195312 153.207031 C 142.714844 152.984375 143.007812 152.410156 142.863281 151.84375 C 142.726562 151.320312 142.253906 150.972656 141.734375 150.972656 C 141.636719 150.972656 141.539062 150.984375 141.441406 151.007812 L 141.414062 151.015625 C 141.585938 150.808594 141.824219 150.652344 142.101562 150.582031 C 142.21875 150.554688 142.328125 150.539062 142.441406 150.539062 C 143.039062 150.539062 143.585938 150.941406 143.742188 151.546875 C 143.925781 152.265625 143.496094 153 142.777344 153.1875 C 142.664062 153.214844 142.550781 153.230469 142.4375 153.230469 M 135.796875 152.46875 L 134.765625 148.480469 L 135.980469 148.167969 L 137.011719 152.152344 L 135.796875 152.46875 M 140.84375 147.066406 C 140.710938 147.066406 140.582031 147.046875 140.457031 147.007812 C 141.050781 146.828125 141.402344 146.210938 141.246094 145.601562 C 141.109375 145.078125 140.636719 144.726562 140.121094 144.726562 C 140.050781 144.726562 139.988281 144.734375 139.917969 144.746094 C 140.078125 144.59375 140.277344 144.476562 140.507812 144.417969 C 140.621094 144.390625 140.734375 144.375 140.847656 144.375 C 141.445312 144.375 141.992188 144.777344 142.148438 145.382812 C 142.332031 146.101562 141.902344 146.835938 141.183594 147.023438 C 141.070312 147.050781 140.957031 147.066406 140.84375 147.066406 M 134.183594 146.226562 L 132.671875 140.390625 C 132.605469 140.125 132.570312 139.855469 132.570312 139.59375 C 132.570312 138.179688 133.519531 136.886719 134.953125 136.515625 L 145.691406 133.738281 C 145.75 135.257812 145.851562 136.777344 145.992188 138.292969 L 134.214844 141.339844 L 135.398438 145.910156 L 134.183594 146.226562 " fill-opacity="1" fill-rule="nonzero"/></g><path fill="#ffffff" d="M 141.183594 147.023438 C 140.464844 147.210938 139.730469 146.777344 139.542969 146.058594 C 139.355469 145.339844 139.789062 144.605469 140.507812 144.417969 C 141.226562 144.230469 141.960938 144.664062 142.148438 145.382812 C 142.332031 146.101562 141.902344 146.835938 141.183594 147.023438 M 142.777344 153.1875 C 142.058594 153.375 141.324219 152.941406 141.136719 152.222656 C 140.953125 151.503906 141.382812 150.769531 142.101562 150.582031 C 142.820312 150.398438 143.554688 150.828125 143.742188 151.546875 C 143.925781 152.265625 143.496094 153 142.777344 153.1875 M 144.371094 159.351562 C 143.652344 159.535156 142.917969 159.105469 142.730469 158.386719 C 142.546875 157.667969 142.976562 156.933594 143.695312 156.746094 C 144.417969 156.5625 145.148438 156.992188 145.335938 157.710938 C 145.523438 158.429688 145.089844 159.164062 144.371094 159.351562 M 145.964844 165.515625 C 145.246094 165.699219 144.511719 165.269531 144.328125 164.550781 C 144.140625 163.832031 144.570312 163.097656 145.292969 162.910156 C 146.011719 162.726562 146.746094 163.15625 146.929688 163.875 C 147.117188 164.597656 146.683594 165.328125 145.964844 165.515625 M 147.5625 171.679688 C 146.839844 171.863281 146.105469 171.433594 145.921875 170.714844 C 145.734375 169.992188 146.167969 169.261719 146.886719 169.074219 C 147.605469 168.886719 148.339844 169.320312 148.523438 170.039062 C 148.710938 170.757812 148.277344 171.492188 147.5625 171.679688 M 149.15625 177.84375 C 148.4375 178.027344 147.703125 177.597656 147.515625 176.878906 C 147.328125 176.15625 147.761719 175.425781 148.480469 175.238281 C 149.199219 175.050781 149.933594 175.484375 150.121094 176.203125 C 150.304688 176.921875 149.875 177.65625 149.15625 177.84375 M 150.75 184.007812 C 150.03125 184.195312 149.296875 183.761719 149.109375 183.042969 C 148.925781 182.324219 149.355469 181.589844 150.074219 181.402344 C 150.792969 181.214844 151.527344 181.648438 151.714844 182.367188 C 151.898438 183.085938 151.46875 183.820312 150.75 184.007812 M 152.34375 190.171875 C 151.625 190.359375 150.890625 189.925781 150.703125 189.207031 C 150.519531 188.488281 150.949219 187.753906 151.667969 187.566406 C 152.390625 187.382812 153.121094 187.8125 153.308594 188.53125 C 153.496094 189.25 153.0625 189.984375 152.34375 190.171875 M 153.9375 196.335938 C 153.21875 196.519531 152.484375 196.089844 152.300781 195.367188 C 152.113281 194.648438 152.542969 193.917969 153.265625 193.730469 C 153.984375 193.546875 154.71875 193.976562 154.902344 194.695312 C 155.089844 195.417969 154.65625 196.148438 153.9375 196.335938 M 155.535156 202.5 C 154.8125 202.683594 154.078125 202.253906 153.894531 201.535156 C 153.707031 200.8125 154.140625 200.082031 154.859375 199.894531 C 155.578125 199.707031 156.3125 200.140625 156.496094 200.859375 C 156.683594 201.578125 156.25 202.3125 155.535156 202.5 M 157.128906 208.664062 C 156.410156 208.851562 155.675781 208.417969 155.488281 207.699219 C 155.300781 206.976562 155.734375 206.246094 156.453125 206.058594 C 157.171875 205.871094 157.90625 206.304688 158.09375 207.023438 C 158.277344 207.742188 157.847656 208.476562 157.128906 208.664062 M 158.722656 214.828125 C 158.003906 215.015625 157.269531 214.582031 157.082031 213.863281 C 156.894531 213.140625 157.328125 212.40625 158.046875 212.222656 C 158.765625 212.035156 159.5 212.46875 159.6875 213.1875 C 159.871094 213.90625 159.441406 214.640625 158.722656 214.828125 M 160.316406 220.992188 C 159.597656 221.179688 158.863281 220.746094 158.675781 220.027344 C 158.492188 219.304688 158.921875 218.574219 159.640625 218.386719 C 160.359375 218.203125 161.09375 218.632812 161.28125 219.351562 C 161.46875 220.070312 161.035156 220.804688 160.316406 220.992188 M 161.910156 227.15625 C 161.191406 227.339844 160.457031 226.910156 160.273438 226.191406 C 160.085938 225.46875 160.515625 224.738281 161.238281 224.550781 C 161.957031 224.363281 162.6875 224.796875 162.875 225.515625 C 163.0625 226.234375 162.628906 226.96875 161.910156 227.15625 M 163.507812 233.320312 C 162.785156 233.503906 162.050781 233.074219 161.867188 232.351562 C 161.679688 231.632812 162.113281 230.902344 162.832031 230.714844 C 163.550781 230.527344 164.285156 230.960938 164.46875 231.679688 C 164.65625 232.398438 164.222656 233.132812 163.507812 233.320312 M 165.101562 239.484375 C 164.382812 239.667969 163.648438 239.238281 163.460938 238.515625 C 163.273438 237.800781 163.707031 237.0625 164.425781 236.878906 C 165.144531 236.691406 165.878906 237.125 166.0625 237.84375 C 166.25 238.5625 165.820312 239.296875 165.101562 239.484375 M 166.695312 245.648438 C 165.976562 245.832031 165.242188 245.402344 165.054688 244.679688 C 164.867188 243.964844 165.300781 243.226562 166.019531 243.042969 C 166.738281 242.855469 167.472656 243.289062 167.660156 244.007812 C 167.84375 244.726562 167.414062 245.460938 166.695312 245.648438 M 168.289062 251.8125 C 167.570312 252 166.835938 251.566406 166.648438 250.847656 C 166.460938 250.125 166.894531 249.394531 167.613281 249.207031 C 168.332031 249.019531 169.066406 249.453125 169.253906 250.171875 C 169.441406 250.890625 169.007812 251.625 168.289062 251.8125 M 134.214844 141.339844 L 164.277344 257.554688 L 253.640625 234.441406 L 223.578125 118.222656 L 134.214844 141.339844 " fill-opacity="1" fill-rule="nonzero"/><path fill="#e26968" d="M 173.929688 255.058594 L 173.359375 255.207031 L 143.296875 138.988281 L 143.867188 138.839844 L 173.929688 255.058594 " fill-opacity="1" fill-rule="nonzero"/><path fill="#c6c5c5" d="M 220.410156 125.558594 L 147.539062 144.40625 L 147.460938 144.113281 L 220.332031 125.265625 L 220.410156 125.558594 " fill-opacity="1" fill-rule="nonzero"/><path fill="#c6c5c5" d="M 221.492188 129.730469 L 148.617188 148.578125 L 148.542969 148.285156 L 221.414062 129.433594 L 221.492188 129.730469 " fill-opacity="1" fill-rule="nonzero"/><path fill="#c6c5c5" d="M 222.570312 133.898438 L 149.695312 152.75 L 149.621094 152.457031 L 222.492188 133.605469 L 222.570312 133.898438 " fill-opacity="1" fill-rule="nonzero"/><path fill="#c6c5c5" d="M 223.648438 138.074219 L 150.777344 156.921875 L 150.699219 156.628906 L 223.574219 137.777344 L 223.648438 138.074219 " fill-opacity="1" fill-rule="nonzero"/><path fill="#c6c5c5" d="M 224.726562 142.246094 L 151.855469 161.09375 L 151.777344 160.800781 L 224.652344 141.949219 L 224.726562 142.246094 " fill-opacity="1" fill-rule="nonzero"/><path fill="#c6c5c5" d="M 225.808594 146.417969 L 152.9375 165.265625 L 152.859375 164.976562 L 225.730469 146.125 L 225.808594 146.417969 " fill-opacity="1" fill-rule="nonzero"/><path fill="#c6c5c5" d="M 226.886719 150.585938 L 154.011719 169.4375 L 153.9375 169.144531 L 226.808594 150.292969 L 226.886719 150.585938 " fill-opacity="1" fill-rule="nonzero"/><path fill="#c6c5c5" d="M 227.964844 154.757812 L 155.09375 173.609375 L 155.015625 173.316406 L 227.890625 154.464844 L 227.964844 154.757812 " fill-opacity="1" fill-rule="nonzero"/><path fill="#c6c5c5" d="M 229.042969 158.933594 L 156.171875 177.78125 L 156.097656 177.488281 L 228.96875 158.640625 L 229.042969 158.933594 " fill-opacity="1" fill-rule="nonzero"/><path fill="#c6c5c5" d="M 230.125 163.105469 L 157.253906 181.953125 L 157.175781 181.660156 L 230.046875 162.8125 L 230.125 163.105469 " fill-opacity="1" fill-rule="nonzero"/><path fill="#c6c5c5" d="M 231.203125 167.277344 L 158.332031 186.125 L 158.253906 185.835938 L 231.128906 166.984375 L 231.203125 167.277344 " fill-opacity="1" fill-rule="nonzero"/><path fill="#c6c5c5" d="M 232.28125 171.445312 L 159.410156 190.296875 L 159.332031 190.003906 L 232.207031 171.15625 L 232.28125 171.445312 " fill-opacity="1" fill-rule="nonzero"/><path fill="#c6c5c5" d="M 233.359375 175.621094 L 160.488281 194.46875 L 160.414062 194.175781 L 233.285156 175.328125 L 233.359375 175.621094 " fill-opacity="1" fill-rule="nonzero"/><path fill="#c6c5c5" d="M 234.441406 179.792969 L 161.566406 198.640625 L 161.492188 198.347656 L 234.363281 179.496094 L 234.441406 179.792969 " fill-opacity="1" fill-rule="nonzero"/><path fill="#c6c5c5" d="M 235.519531 183.964844 L 162.648438 202.8125 L 162.574219 202.519531 L 235.445312 183.667969 L 235.519531 183.964844 " fill-opacity="1" fill-rule="nonzero"/><path fill="#c6c5c5" d="M 236.597656 188.136719 L 163.726562 206.984375 L 163.652344 206.695312 L 236.523438 187.84375 L 236.597656 188.136719 " fill-opacity="1" fill-rule="nonzero"/><path fill="#c6c5c5" d="M 237.675781 192.304688 L 164.804688 211.15625 L 164.730469 210.863281 L 237.601562 192.015625 L 237.675781 192.304688 " fill-opacity="1" fill-rule="nonzero"/><path fill="#c6c5c5" d="M 238.757812 196.480469 L 165.882812 215.328125 L 165.808594 215.035156 L 238.679688 196.1875 L 238.757812 196.480469 " fill-opacity="1" fill-rule="nonzero"/><path fill="#c6c5c5" d="M 239.835938 200.652344 L 166.964844 219.5 L 166.890625 219.207031 L 239.761719 200.359375 L 239.835938 200.652344 " fill-opacity="1" fill-rule="nonzero"/><path fill="#c6c5c5" d="M 240.914062 204.824219 L 168.042969 223.671875 L 167.96875 223.382812 L 240.839844 204.53125 L 240.914062 204.824219 " fill-opacity="1" fill-rule="nonzero"/><path fill="#c6c5c5" d="M 241.996094 208.996094 L 169.121094 227.84375 L 169.046875 227.554688 L 241.917969 208.703125 L 241.996094 208.996094 " fill-opacity="1" fill-rule="nonzero"/><path fill="#c6c5c5" d="M 243.074219 213.164062 L 170.199219 232.015625 L 170.125 231.726562 L 242.996094 212.875 L 243.074219 213.164062 " fill-opacity="1" fill-rule="nonzero"/><path fill="#c6c5c5" d="M 244.152344 217.339844 L 171.28125 236.1875 L 171.207031 235.894531 L 244.078125 217.046875 L 244.152344 217.339844 " fill-opacity="1" fill-rule="nonzero"/><path fill="#c6c5c5" d="M 245.230469 221.511719 L 172.359375 240.359375 L 172.285156 240.066406 L 245.15625 221.21875 L 245.230469 221.511719 " fill-opacity="1" fill-rule="nonzero"/><path fill="#c6c5c5" d="M 246.308594 225.683594 L 173.4375 244.53125 L 173.363281 244.242188 L 246.234375 225.390625 L 246.308594 225.683594 " fill-opacity="1" fill-rule="nonzero"/><path fill="#c6c5c5" d="M 247.390625 229.855469 L 174.519531 248.703125 L 174.441406 248.414062 L 247.316406 229.5625 L 247.390625 229.855469 " fill-opacity="1" fill-rule="nonzero"/><path fill="#bdbcbc" d="M 141.246094 145.601562 C 141.40625 146.226562 141.03125 146.859375 140.410156 147.023438 L 132.59375 149.042969 C 131.96875 149.203125 131.335938 148.832031 131.175781 148.207031 C 131.011719 147.585938 131.386719 146.949219 132.011719 146.785156 L 139.824219 144.765625 C 140.449219 144.601562 141.085938 144.976562 141.246094 145.601562 " fill-opacity="1" fill-rule="nonzero"/><path fill="#bdbcbd" d="M 132.300781 149.082031 L 132.300781 149.082031 M 132.304688 149.082031 C 132.394531 149.082031 132.488281 149.070312 132.582031 149.046875 C 132.488281 149.070312 132.394531 149.082031 132.304688 149.082031 M 132.585938 149.046875 C 132.589844 149.046875 132.59375 149.042969 132.59375 149.042969 L 134.765625 148.480469 L 132.59375 149.042969 C 132.59375 149.042969 132.589844 149.046875 132.585938 149.046875 " fill-opacity="1" fill-rule="nonzero"/><path fill="#bdbcbd" d="M 131.179688 148.230469 C 131.179688 148.226562 131.179688 148.226562 131.179688 148.222656 C 131.179688 148.226562 131.179688 148.226562 131.179688 148.230469 M 131.175781 148.214844 C 131.175781 148.210938 131.175781 148.210938 131.175781 148.207031 C 131.148438 148.109375 131.136719 148.011719 131.136719 147.917969 C 131.136719 148.011719 131.148438 148.109375 131.175781 148.207031 C 131.175781 148.210938 131.175781 148.210938 131.175781 148.214844 M 132.011719 146.785156 L 132.039062 146.78125 L 132.011719 146.785156 " fill-opacity="1" fill-rule="nonzero"/><path fill="#908e8e" d="M 132.300781 149.082031 C 131.789062 149.078125 131.324219 148.742188 131.179688 148.230469 C 131.179688 148.226562 131.179688 148.226562 131.179688 148.222656 C 131.179688 148.21875 131.179688 148.21875 131.175781 148.214844 C 131.175781 148.210938 131.175781 148.210938 131.175781 148.207031 C 131.148438 148.109375 131.136719 148.011719 131.136719 147.917969 C 131.136719 147.394531 131.484375 146.921875 132.011719 146.785156 L 132.039062 146.78125 C 132.042969 146.859375 132.050781 146.941406 132.074219 147.023438 C 132.210938 147.550781 132.683594 147.898438 133.199219 147.898438 C 133.296875 147.898438 133.394531 147.886719 133.492188 147.859375 L 141.28125 145.847656 C 141.304688 146.382812 140.949219 146.882812 140.410156 147.023438 L 135.980469 148.167969 L 134.765625 148.480469 L 132.59375 149.042969 C 132.59375 149.042969 132.589844 149.046875 132.585938 149.046875 C 132.582031 149.046875 132.582031 149.046875 132.582031 149.046875 C 132.488281 149.070312 132.394531 149.082031 132.304688 149.082031 C 132.300781 149.082031 132.300781 149.082031 132.300781 149.082031 " fill-opacity="1" fill-rule="nonzero"/><path fill="#ffffff" d="M 132.804688 146.921875 L 139.960938 145.070312 C 139.960938 145.070312 140.554688 145.054688 140.804688 145.5 L 133.109375 147.492188 C 133.109375 147.492188 132.710938 147.40625 132.804688 146.921875 " fill-opacity="1" fill-rule="nonzero"/><path fill="#bdbcbc" d="M 142.863281 151.84375 C 143.023438 152.46875 142.648438 153.105469 142.023438 153.265625 L 134.210938 155.285156 C 133.585938 155.449219 132.953125 155.074219 132.789062 154.449219 C 132.628906 153.828125 133.003906 153.191406 133.625 153.027344 L 141.441406 151.007812 C 142.0625 150.847656 142.699219 151.222656 142.863281 151.84375 " fill-opacity="1" fill-rule="nonzero"/><path fill="#bdbcbd" d="M 133.917969 155.324219 C 133.917969 155.324219 133.914062 155.324219 133.914062 155.324219 C 133.914062 155.324219 133.917969 155.324219 133.917969 155.324219 M 133.917969 155.324219 C 134.007812 155.324219 134.105469 155.3125 134.195312 155.289062 C 134.105469 155.3125 134.007812 155.324219 133.917969 155.324219 M 134.203125 155.289062 C 134.207031 155.289062 134.207031 155.289062 134.210938 155.285156 L 136.382812 154.726562 L 134.210938 155.285156 C 134.207031 155.289062 134.207031 155.289062 134.203125 155.289062 " fill-opacity="1" fill-rule="nonzero"/><path fill="#908e8e" d="M 133.917969 155.324219 C 133.917969 155.324219 133.914062 155.324219 133.914062 155.324219 C 133.398438 155.324219 132.929688 154.980469 132.792969 154.457031 C 132.789062 154.453125 132.789062 154.453125 132.789062 154.449219 C 132.765625 154.351562 132.75 154.253906 132.75 154.160156 C 132.75 153.640625 133.097656 153.164062 133.625 153.027344 L 133.652344 153.023438 C 133.65625 153.105469 133.667969 153.1875 133.6875 153.269531 C 133.824219 153.792969 134.296875 154.140625 134.816406 154.140625 C 134.914062 154.140625 135.011719 154.128906 135.109375 154.105469 L 142.898438 152.089844 C 142.917969 152.628906 142.566406 153.125 142.023438 153.265625 L 137.59375 154.410156 L 136.382812 154.726562 L 134.210938 155.285156 C 134.207031 155.289062 134.207031 155.289062 134.203125 155.289062 C 134.199219 155.289062 134.199219 155.289062 134.195312 155.289062 C 134.105469 155.3125 134.007812 155.324219 133.917969 155.324219 " fill-opacity="1" fill-rule="nonzero"/><path fill="#ffffff" d="M 134.421875 153.164062 L 141.578125 151.3125 C 141.578125 151.3125 142.171875 151.296875 142.417969 151.746094 L 134.722656 153.734375 C 134.722656 153.734375 134.328125 153.652344 134.421875 153.164062 " fill-opacity="1" fill-rule="nonzero"/><path fill="#bdbcbc" d="M 144.476562 158.089844 C 144.636719 158.710938 144.261719 159.347656 143.640625 159.507812 L 135.828125 161.53125 C 135.199219 161.691406 134.566406 161.316406 134.402344 160.695312 C 134.242188 160.070312 134.617188 159.433594 135.242188 159.273438 L 143.054688 157.25 C 143.679688 157.089844 144.316406 157.464844 144.476562 158.089844 " fill-opacity="1" fill-rule="nonzero"/><path fill="#bdbcbd" d="M 135.53125 161.566406 L 135.53125 161.566406 M 135.53125 161.566406 C 135.625 161.566406 135.722656 161.554688 135.816406 161.53125 C 135.722656 161.554688 135.625 161.566406 135.53125 161.566406 " fill-opacity="1" fill-rule="nonzero"/><path fill="#21676e" d="M 143.929688 159.390625 C 144.113281 159.285156 144.261719 159.128906 144.363281 158.949219 C 144.261719 159.128906 144.113281 159.285156 143.929688 159.390625 " fill-opacity="1" fill-rule="nonzero"/><path fill="#bdbcbd" d="M 143.644531 159.507812 C 143.746094 159.480469 143.84375 159.441406 143.929688 159.390625 C 143.84375 159.441406 143.746094 159.480469 143.644531 159.507812 " fill-opacity="1" fill-rule="nonzero"/><path fill="#908e8e" d="M 135.53125 161.566406 C 135.023438 161.566406 134.558594 161.234375 134.414062 160.726562 C 134.414062 160.722656 134.414062 160.722656 134.414062 160.722656 C 134.410156 160.714844 134.40625 160.703125 134.402344 160.695312 C 134.378906 160.597656 134.367188 160.5 134.367188 160.402344 C 134.367188 159.882812 134.714844 159.410156 135.242188 159.273438 L 135.265625 159.265625 C 135.269531 159.347656 135.28125 159.429688 135.300781 159.511719 C 135.4375 160.039062 135.914062 160.386719 136.429688 160.386719 C 136.527344 160.386719 136.625 160.375 136.722656 160.347656 L 144.511719 158.335938 C 144.519531 158.554688 144.46875 158.765625 144.363281 158.949219 C 144.261719 159.128906 144.113281 159.285156 143.929688 159.390625 C 143.84375 159.441406 143.746094 159.480469 143.644531 159.507812 C 143.644531 159.507812 143.640625 159.507812 143.640625 159.507812 L 139.210938 160.652344 L 137.996094 160.96875 L 135.828125 161.53125 C 135.824219 161.53125 135.820312 161.53125 135.816406 161.53125 C 135.722656 161.554688 135.625 161.566406 135.53125 161.566406 " fill-opacity="1" fill-rule="nonzero"/><path fill="#ffffff" d="M 136.035156 159.40625 L 143.191406 157.558594 C 143.191406 157.558594 143.785156 157.542969 144.03125 157.988281 L 136.339844 159.976562 C 136.339844 159.976562 135.941406 159.894531 136.035156 159.40625 " fill-opacity="1" fill-rule="nonzero"/><path fill="#bdbcbc" d="M 146.039062 164.128906 C 146.199219 164.753906 145.824219 165.390625 145.203125 165.550781 L 137.386719 167.570312 C 136.765625 167.734375 136.128906 167.359375 135.96875 166.734375 C 135.804688 166.113281 136.179688 165.476562 136.804688 165.316406 L 144.617188 163.292969 C 145.242188 163.132812 145.878906 163.507812 146.039062 164.128906 " fill-opacity="1" fill-rule="nonzero"/><path fill="#bdbcbd" d="M 137.097656 167.609375 C 137.1875 167.609375 137.28125 167.597656 137.375 167.574219 C 137.28125 167.597656 137.1875 167.609375 137.097656 167.609375 M 137.382812 167.574219 C 137.386719 167.574219 137.386719 167.574219 137.386719 167.570312 L 139.558594 167.011719 L 137.386719 167.570312 C 137.386719 167.574219 137.386719 167.574219 137.382812 167.574219 " fill-opacity="1" fill-rule="nonzero"/><path fill="#908e8e" d="M 137.09375 167.609375 C 136.578125 167.609375 136.105469 167.265625 135.96875 166.742188 C 135.96875 166.742188 135.96875 166.738281 135.96875 166.734375 C 135.941406 166.636719 135.929688 166.539062 135.929688 166.445312 C 135.929688 165.925781 136.277344 165.449219 136.804688 165.316406 L 136.828125 165.308594 C 136.832031 165.386719 136.84375 165.472656 136.867188 165.554688 C 137.003906 166.078125 137.476562 166.429688 137.992188 166.429688 C 138.089844 166.429688 138.1875 166.414062 138.285156 166.390625 L 146.074219 164.375 C 146.09375 164.910156 145.746094 165.40625 145.207031 165.550781 C 145.207031 165.550781 145.203125 165.550781 145.203125 165.550781 L 140.773438 166.695312 L 139.558594 167.011719 L 137.386719 167.570312 C 137.386719 167.574219 137.386719 167.574219 137.382812 167.574219 C 137.378906 167.574219 137.375 167.574219 137.375 167.574219 C 137.28125 167.597656 137.1875 167.609375 137.097656 167.609375 C 137.097656 167.609375 137.097656 167.609375 137.09375 167.609375 " fill-opacity="1" fill-rule="nonzero"/><path fill="#ffffff" d="M 137.601562 165.449219 L 144.753906 163.597656 C 144.753906 163.597656 145.347656 163.582031 145.59375 164.027344 L 137.902344 166.019531 C 137.902344 166.019531 137.503906 165.9375 137.601562 165.449219 " fill-opacity="1" fill-rule="nonzero"/><path fill="#bdbcbc" d="M 147.652344 170.375 C 147.816406 170.996094 147.441406 171.632812 146.816406 171.792969 L 139.003906 173.816406 C 138.378906 173.976562 137.742188 173.601562 137.582031 172.976562 C 137.421875 172.355469 137.796875 171.71875 138.417969 171.558594 L 146.234375 169.535156 C 146.859375 169.375 147.492188 169.75 147.652344 170.375 " fill-opacity="1" fill-rule="nonzero"/><path fill="#bdbcbd" d="M 138.710938 173.851562 C 138.710938 173.851562 138.707031 173.851562 138.707031 173.851562 C 138.707031 173.851562 138.710938 173.851562 138.710938 173.851562 M 138.710938 173.851562 C 138.800781 173.851562 138.890625 173.84375 138.980469 173.820312 C 138.890625 173.84375 138.800781 173.851562 138.710938 173.851562 M 138.980469 173.820312 C 138.988281 173.816406 138.996094 173.816406 139.003906 173.816406 L 141.175781 173.253906 L 139.003906 173.816406 C 138.996094 173.816406 138.988281 173.816406 138.980469 173.820312 " fill-opacity="1" fill-rule="nonzero"/><path fill="#bdbcbd" d="M 146.828125 171.789062 L 146.832031 171.789062 L 146.828125 171.789062 M 146.917969 171.765625 C 146.917969 171.765625 146.917969 171.765625 146.917969 171.761719 C 146.917969 171.765625 146.917969 171.765625 146.917969 171.765625 M 146.921875 171.761719 L 146.921875 171.761719 M 146.929688 171.757812 L 146.929688 171.757812 M 146.933594 171.757812 C 146.933594 171.757812 146.933594 171.753906 146.9375 171.753906 C 146.9375 171.753906 146.933594 171.757812 146.933594 171.757812 " fill-opacity="1" fill-rule="nonzero"/><path fill="#21676e" d="M 147.042969 171.710938 C 147.199219 171.632812 147.335938 171.519531 147.441406 171.386719 C 147.335938 171.519531 147.199219 171.632812 147.042969 171.710938 " fill-opacity="1" fill-rule="nonzero"/><path fill="#bdbcbd" d="M 146.9375 171.753906 C 146.972656 171.742188 147.007812 171.726562 147.042969 171.710938 C 147.007812 171.726562 146.972656 171.742188 146.9375 171.753906 " fill-opacity="1" fill-rule="nonzero"/><path fill="#bdbcbd" d="M 138.417969 171.558594 L 138.445312 171.550781 L 138.417969 171.558594 " fill-opacity="1" fill-rule="nonzero"/><path fill="#908e8e" d="M 138.710938 173.851562 C 138.710938 173.851562 138.707031 173.851562 138.707031 173.851562 C 138.199219 173.851562 137.734375 173.515625 137.589844 173.003906 C 137.585938 172.996094 137.582031 172.988281 137.582031 172.976562 C 137.554688 172.878906 137.542969 172.785156 137.542969 172.6875 C 137.542969 172.167969 137.890625 171.695312 138.417969 171.558594 L 138.445312 171.550781 C 138.449219 171.632812 138.460938 171.714844 138.480469 171.796875 C 138.617188 172.324219 139.089844 172.671875 139.609375 172.671875 C 139.703125 172.671875 139.804688 172.660156 139.902344 172.632812 L 147.6875 170.621094 C 147.699219 170.902344 147.609375 171.175781 147.441406 171.386719 C 147.335938 171.519531 147.199219 171.632812 147.042969 171.710938 C 147.007812 171.726562 146.972656 171.742188 146.9375 171.753906 C 146.933594 171.753906 146.933594 171.757812 146.933594 171.757812 C 146.929688 171.757812 146.929688 171.757812 146.929688 171.757812 C 146.925781 171.757812 146.925781 171.761719 146.921875 171.761719 C 146.917969 171.761719 146.917969 171.761719 146.917969 171.761719 C 146.917969 171.765625 146.917969 171.765625 146.917969 171.765625 C 146.914062 171.765625 146.914062 171.765625 146.910156 171.765625 C 146.90625 171.765625 146.90625 171.765625 146.90625 171.765625 C 146.902344 171.769531 146.898438 171.769531 146.898438 171.769531 C 146.875 171.777344 146.851562 171.785156 146.832031 171.789062 L 146.828125 171.789062 C 146.828125 171.789062 146.824219 171.789062 146.824219 171.792969 C 146.820312 171.792969 146.820312 171.792969 146.816406 171.792969 L 142.386719 172.941406 L 141.175781 173.253906 L 139.003906 173.816406 C 138.996094 173.816406 138.988281 173.816406 138.980469 173.820312 C 138.890625 173.84375 138.800781 173.851562 138.710938 173.851562 " fill-opacity="1" fill-rule="nonzero"/><path fill="#ffffff" d="M 139.214844 171.691406 L 146.367188 169.839844 C 146.367188 169.839844 146.960938 169.824219 147.210938 170.273438 L 139.515625 172.261719 C 139.515625 172.261719 139.117188 172.179688 139.214844 171.691406 " fill-opacity="1" fill-rule="nonzero"/><path fill="#bdbcbc" d="M 149.191406 176.3125 C 149.351562 176.9375 148.976562 177.570312 148.351562 177.734375 L 140.539062 179.753906 C 139.914062 179.917969 139.28125 179.542969 139.117188 178.917969 C 138.957031 178.296875 139.332031 177.660156 139.953125 177.496094 L 147.769531 175.476562 C 148.394531 175.3125 149.027344 175.691406 149.191406 176.3125 " fill-opacity="1" fill-rule="nonzero"/><path fill="#908e8e" d="M 141.324219 179.550781 L 139.714844 177.589844 C 139.789062 177.550781 139.871094 177.519531 139.953125 177.496094 L 139.980469 177.492188 C 139.984375 177.574219 139.996094 177.652344 140.019531 177.738281 C 140.152344 178.261719 140.625 178.609375 141.144531 178.609375 C 141.242188 178.609375 141.339844 178.597656 141.4375 178.574219 L 149.226562 176.558594 C 149.246094 177.097656 148.894531 177.59375 148.351562 177.734375 L 148.25 177.757812 L 143.925781 178.878906 L 142.710938 179.191406 L 141.324219 179.550781 " fill-opacity="1" fill-rule="nonzero"/><path fill="#ffffff" d="M 140.75 177.632812 L 147.90625 175.78125 C 147.90625 175.78125 148.5 175.769531 148.746094 176.210938 L 141.054688 178.203125 C 141.054688 178.203125 140.65625 178.117188 140.75 177.632812 " fill-opacity="1" fill-rule="nonzero"/><path fill="#bdbcbc" d="M 150.804688 182.554688 C 150.96875 183.179688 150.589844 183.816406 149.96875 183.976562 L 142.15625 185.996094 C 141.53125 186.160156 140.894531 185.785156 140.734375 185.160156 C 140.574219 184.539062 140.949219 183.902344 141.570312 183.742188 L 149.386719 181.71875 C 150.007812 181.558594 150.644531 181.933594 150.804688 182.554688 " fill-opacity="1" fill-rule="nonzero"/><path fill="#908e8e" d="M 145.828125 185.046875 L 145.1875 184.265625 L 150.839844 182.800781 C 150.863281 183.335938 150.515625 183.828125 149.980469 183.972656 C 149.980469 183.972656 149.976562 183.972656 149.976562 183.976562 C 149.972656 183.976562 149.972656 183.976562 149.96875 183.976562 L 145.828125 185.046875 " fill-opacity="1" fill-rule="nonzero"/><path fill="#ffffff" d="M 142.367188 183.875 L 149.519531 182.023438 C 149.519531 182.023438 150.113281 182.011719 150.359375 182.457031 L 142.667969 184.445312 C 142.667969 184.445312 142.269531 184.363281 142.367188 183.875 " fill-opacity="1" fill-rule="nonzero"/><path fill="#bdbcbc" d="M 152.421875 188.800781 C 152.582031 189.421875 152.207031 190.058594 151.582031 190.222656 L 143.769531 192.242188 C 143.144531 192.402344 142.507812 192.027344 142.351562 191.40625 C 142.1875 190.78125 142.5625 190.148438 143.1875 189.984375 L 151 187.964844 C 151.625 187.804688 152.257812 188.175781 152.421875 188.800781 " fill-opacity="1" fill-rule="nonzero"/><path fill="#21676e" d="M 151.707031 190.179688 C 151.835938 190.132812 151.953125 190.0625 152.050781 189.976562 C 151.953125 190.0625 151.835938 190.132812 151.707031 190.179688 " fill-opacity="1" fill-rule="nonzero"/><path fill="#bdbcbd" d="M 151.585938 190.21875 C 151.628906 190.207031 151.667969 190.195312 151.707031 190.179688 C 151.667969 190.195312 151.628906 190.207031 151.585938 190.21875 " fill-opacity="1" fill-rule="nonzero"/><path fill="#908e8e" d="M 150.332031 190.542969 L 149.691406 189.761719 L 152.457031 189.046875 C 152.46875 189.40625 152.316406 189.75 152.050781 189.976562 C 151.953125 190.0625 151.835938 190.132812 151.707031 190.179688 C 151.667969 190.195312 151.628906 190.207031 151.585938 190.21875 C 151.585938 190.21875 151.585938 190.21875 151.582031 190.222656 L 150.332031 190.542969 " fill-opacity="1" fill-rule="nonzero"/><path fill="#ffffff" d="M 143.980469 190.117188 L 151.136719 188.269531 C 151.136719 188.269531 151.730469 188.253906 151.976562 188.699219 L 144.28125 190.6875 C 144.28125 190.6875 143.886719 190.609375 143.980469 190.117188 " fill-opacity="1" fill-rule="nonzero"/><path fill="#bdbcbc" d="M 154.003906 194.914062 C 154.164062 195.535156 153.789062 196.171875 153.164062 196.335938 L 145.351562 198.355469 C 144.726562 198.519531 144.089844 198.140625 143.929688 197.519531 C 143.769531 196.894531 144.144531 196.261719 144.769531 196.101562 L 152.582031 194.078125 C 153.203125 193.917969 153.839844 194.289062 154.003906 194.914062 " fill-opacity="1" fill-rule="nonzero"/><path fill="#bdbcbd" d="M 145.058594 198.394531 L 145.058594 198.394531 M 145.058594 198.394531 C 145.15625 198.394531 145.253906 198.382812 145.351562 198.355469 L 146.320312 198.105469 L 145.351562 198.355469 C 145.253906 198.382812 145.15625 198.394531 145.058594 198.394531 M 143.941406 197.558594 C 143.941406 197.558594 143.941406 197.554688 143.941406 197.554688 C 143.941406 197.554688 143.941406 197.558594 143.941406 197.558594 M 143.933594 197.527344 C 143.933594 197.523438 143.929688 197.523438 143.929688 197.519531 C 143.90625 197.421875 143.894531 197.324219 143.894531 197.226562 C 143.894531 197.324219 143.90625 197.421875 143.929688 197.519531 C 143.929688 197.523438 143.933594 197.523438 143.933594 197.527344 " fill-opacity="1" fill-rule="nonzero"/><path fill="#908e8e" d="M 145.058594 198.394531 C 144.550781 198.390625 144.089844 198.0625 143.941406 197.558594 C 143.941406 197.558594 143.941406 197.554688 143.941406 197.554688 C 143.9375 197.546875 143.933594 197.535156 143.933594 197.527344 C 143.933594 197.523438 143.929688 197.523438 143.929688 197.519531 C 143.90625 197.421875 143.894531 197.324219 143.894531 197.226562 C 143.890625 196.734375 144.207031 196.28125 144.691406 196.121094 L 144.816406 196.273438 C 144.820312 196.292969 144.824219 196.316406 144.828125 196.335938 C 144.925781 196.707031 145.183594 196.988281 145.511719 197.121094 L 146.320312 198.105469 L 145.351562 198.355469 C 145.253906 198.382812 145.15625 198.394531 145.058594 198.394531 " fill-opacity="1" fill-rule="nonzero"/><path fill="#ffffff" d="M 145.5625 196.230469 L 152.71875 194.382812 C 152.71875 194.382812 153.308594 194.367188 153.558594 194.8125 L 145.863281 196.804688 C 145.863281 196.804688 145.46875 196.722656 145.5625 196.230469 " fill-opacity="1" fill-rule="nonzero"/><path fill="#bdbcbc" d="M 155.601562 201.097656 C 155.765625 201.722656 155.390625 202.359375 154.765625 202.519531 L 146.953125 204.539062 C 146.328125 204.703125 145.691406 204.328125 145.53125 203.703125 C 145.371094 203.082031 145.742188 202.445312 146.367188 202.285156 L 154.179688 200.261719 C 154.804688 200.101562 155.441406 200.476562 155.601562 201.097656 " fill-opacity="1" fill-rule="nonzero"/><path fill="#bdbcbd" d="M 146.660156 204.578125 C 146.65625 204.578125 146.65625 204.578125 146.65625 204.578125 C 146.65625 204.578125 146.65625 204.578125 146.660156 204.578125 M 146.660156 204.578125 C 146.753906 204.578125 146.855469 204.566406 146.953125 204.539062 L 149.121094 203.980469 L 146.953125 204.539062 C 146.855469 204.566406 146.753906 204.578125 146.660156 204.578125 " fill-opacity="1" fill-rule="nonzero"/><path fill="#908e8e" d="M 146.660156 204.578125 C 146.65625 204.578125 146.65625 204.578125 146.65625 204.578125 C 146.152344 204.578125 145.6875 204.246094 145.539062 203.742188 C 145.539062 203.742188 145.539062 203.742188 145.539062 203.738281 C 145.539062 203.734375 145.539062 203.730469 145.535156 203.726562 C 145.535156 203.71875 145.53125 203.710938 145.53125 203.703125 C 145.503906 203.605469 145.492188 203.507812 145.492188 203.414062 C 145.492188 202.894531 145.839844 202.417969 146.367188 202.285156 L 146.394531 202.277344 C 146.398438 202.359375 146.40625 202.441406 146.429688 202.523438 C 146.566406 203.046875 147.039062 203.398438 147.554688 203.398438 C 147.652344 203.398438 147.75 203.382812 147.847656 203.359375 L 150.136719 202.765625 L 150.78125 203.550781 L 150.335938 203.664062 L 149.121094 203.980469 L 146.953125 204.539062 C 146.855469 204.566406 146.753906 204.578125 146.660156 204.578125 " fill-opacity="1" fill-rule="nonzero"/><path fill="#ffffff" d="M 147.164062 202.417969 L 154.316406 200.566406 C 154.316406 200.566406 154.910156 200.550781 155.15625 200.996094 L 147.464844 202.988281 C 147.464844 202.988281 147.066406 202.90625 147.164062 202.417969 " fill-opacity="1" fill-rule="nonzero"/><path fill="#bdbcbc" d="M 157.1875 207.226562 C 157.347656 207.851562 156.972656 208.484375 156.351562 208.648438 L 148.535156 210.667969 C 147.914062 210.832031 147.277344 210.457031 147.113281 209.832031 C 146.953125 209.210938 147.328125 208.574219 147.953125 208.410156 L 155.765625 206.390625 C 156.390625 206.230469 157.023438 206.601562 157.1875 207.226562 " fill-opacity="1" fill-rule="nonzero"/><path fill="#bdbcbd" d="M 148.242188 210.707031 L 148.242188 210.707031 M 148.242188 210.707031 C 148.335938 210.707031 148.429688 210.695312 148.523438 210.671875 C 148.429688 210.695312 148.335938 210.707031 148.242188 210.707031 " fill-opacity="1" fill-rule="nonzero"/><path fill="#908e8e" d="M 148.242188 210.707031 C 147.726562 210.703125 147.253906 210.359375 147.117188 209.839844 C 147.117188 209.835938 147.117188 209.835938 147.113281 209.832031 C 147.089844 209.734375 147.078125 209.636719 147.078125 209.539062 C 147.078125 209.023438 147.425781 208.546875 147.953125 208.410156 L 147.976562 208.40625 C 147.980469 208.484375 147.992188 208.566406 148.011719 208.652344 C 148.152344 209.175781 148.621094 209.527344 149.144531 209.527344 C 149.238281 209.527344 149.335938 209.515625 149.433594 209.488281 L 154.558594 208.160156 L 155.203125 208.945312 L 151.921875 209.792969 L 150.707031 210.105469 L 148.535156 210.667969 C 148.53125 210.667969 148.527344 210.671875 148.523438 210.671875 C 148.429688 210.695312 148.335938 210.707031 148.242188 210.707031 " fill-opacity="1" fill-rule="nonzero"/><path fill="#ffffff" d="M 148.746094 208.546875 L 155.902344 206.695312 C 155.902344 206.695312 156.496094 206.679688 156.742188 207.125 L 149.050781 209.117188 C 149.050781 209.117188 148.652344 209.035156 148.746094 208.546875 " fill-opacity="1" fill-rule="nonzero"/><path fill="#bdbcbc" d="M 158.800781 213.46875 C 158.964844 214.09375 158.589844 214.730469 157.964844 214.890625 L 150.152344 216.910156 C 149.527344 217.074219 148.890625 216.699219 148.730469 216.074219 C 148.570312 215.453125 148.945312 214.816406 149.566406 214.65625 L 157.382812 212.632812 C 158.007812 212.472656 158.640625 212.847656 158.800781 213.46875 " fill-opacity="1" fill-rule="nonzero"/><path fill="#bdbcbd" d="M 149.859375 216.949219 C 149.855469 216.949219 149.855469 216.949219 149.855469 216.949219 C 149.855469 216.949219 149.855469 216.949219 149.859375 216.949219 M 149.859375 216.949219 C 149.957031 216.949219 150.054688 216.9375 150.152344 216.910156 L 152.324219 216.351562 L 150.152344 216.910156 C 150.054688 216.9375 149.957031 216.949219 149.859375 216.949219 " fill-opacity="1" fill-rule="nonzero"/><path fill="#21676e" d="M 158.113281 214.84375 C 158.191406 214.8125 158.265625 214.769531 158.335938 214.722656 C 158.265625 214.769531 158.191406 214.8125 158.113281 214.84375 " fill-opacity="1" fill-rule="nonzero"/><path fill="#bdbcbd" d="M 157.972656 214.890625 C 158.019531 214.875 158.066406 214.859375 158.113281 214.84375 C 158.066406 214.859375 158.019531 214.875 157.972656 214.890625 " fill-opacity="1" fill-rule="nonzero"/><path fill="#908e8e" d="M 149.859375 216.949219 C 149.855469 216.949219 149.855469 216.949219 149.855469 216.949219 C 149.34375 216.949219 148.875 216.605469 148.734375 216.089844 C 148.730469 216.085938 148.730469 216.082031 148.730469 216.074219 C 148.703125 215.976562 148.691406 215.878906 148.691406 215.785156 C 148.691406 215.265625 149.039062 214.789062 149.566406 214.65625 L 149.59375 214.648438 C 149.597656 214.730469 149.605469 214.8125 149.628906 214.894531 C 149.765625 215.417969 150.238281 215.769531 150.757812 215.769531 C 150.851562 215.769531 150.953125 215.757812 151.050781 215.730469 L 158.835938 213.714844 C 158.855469 214.117188 158.664062 214.496094 158.339844 214.71875 C 158.335938 214.722656 158.335938 214.722656 158.335938 214.722656 C 158.265625 214.769531 158.191406 214.8125 158.113281 214.84375 C 158.066406 214.859375 158.019531 214.875 157.972656 214.890625 C 157.96875 214.890625 157.96875 214.890625 157.964844 214.890625 L 153.535156 216.035156 L 152.324219 216.351562 L 150.152344 216.910156 C 150.054688 216.9375 149.957031 216.949219 149.859375 216.949219 " fill-opacity="1" fill-rule="nonzero"/><path fill="#ffffff" d="M 150.363281 214.789062 L 157.515625 212.9375 C 157.515625 212.9375 158.113281 212.925781 158.359375 213.371094 L 150.664062 215.359375 C 150.664062 215.359375 150.265625 215.277344 150.363281 214.789062 " fill-opacity="1" fill-rule="nonzero"/><path fill="#bdbcbc" d="M 160.378906 219.570312 C 160.539062 220.195312 160.167969 220.828125 159.542969 220.988281 L 151.730469 223.011719 C 151.105469 223.171875 150.46875 222.796875 150.308594 222.171875 C 150.144531 221.550781 150.519531 220.914062 151.144531 220.753906 L 158.957031 218.734375 C 159.582031 218.570312 160.21875 218.945312 160.378906 219.570312 " fill-opacity="1" fill-rule="nonzero"/><path fill="#bdbcbd" d="M 151.4375 223.046875 C 151.433594 223.046875 151.433594 223.046875 151.433594 223.046875 C 151.433594 223.046875 151.433594 223.046875 151.4375 223.046875 M 151.4375 223.046875 C 151.535156 223.046875 151.628906 223.035156 151.730469 223.011719 L 153.898438 222.449219 L 151.730469 223.011719 C 151.628906 223.035156 151.535156 223.046875 151.4375 223.046875 " fill-opacity="1" fill-rule="nonzero"/><path fill="#908e8e" d="M 151.4375 223.046875 C 151.433594 223.046875 151.433594 223.046875 151.433594 223.046875 C 150.921875 223.046875 150.453125 222.707031 150.3125 222.1875 C 150.3125 222.183594 150.308594 222.179688 150.308594 222.171875 C 150.285156 222.078125 150.269531 221.980469 150.269531 221.882812 C 150.269531 221.363281 150.621094 220.890625 151.144531 220.753906 L 151.171875 220.746094 C 151.175781 220.828125 151.1875 220.910156 151.207031 220.992188 C 151.34375 221.519531 151.816406 221.867188 152.335938 221.867188 C 152.433594 221.867188 152.527344 221.855469 152.628906 221.828125 L 160.414062 219.8125 C 160.4375 220.351562 160.085938 220.851562 159.542969 220.988281 L 155.113281 222.136719 L 153.898438 222.449219 L 151.730469 223.011719 C 151.628906 223.035156 151.535156 223.046875 151.4375 223.046875 " fill-opacity="1" fill-rule="nonzero"/><path fill="#ffffff" d="M 151.941406 220.890625 L 159.097656 219.039062 C 159.097656 219.039062 159.6875 219.019531 159.9375 219.46875 L 152.242188 221.457031 C 152.242188 221.457031 151.84375 221.375 151.941406 220.890625 " fill-opacity="1" fill-rule="nonzero"/><path fill="#bdbcbc" d="M 161.949219 225.640625 C 162.109375 226.261719 161.734375 226.898438 161.113281 227.058594 L 153.296875 229.082031 C 152.675781 229.242188 152.039062 228.867188 151.878906 228.246094 C 151.71875 227.621094 152.089844 226.984375 152.714844 226.824219 L 160.53125 224.800781 C 161.152344 224.640625 161.789062 225.015625 161.949219 225.640625 " fill-opacity="1" fill-rule="nonzero"/><path fill="#bdbcbd" d="M 153.007812 229.117188 C 153.003906 229.117188 153.003906 229.117188 153.003906 229.117188 C 153.003906 229.117188 153.003906 229.117188 153.007812 229.117188 M 153.007812 229.117188 C 153.101562 229.117188 153.195312 229.105469 153.289062 229.082031 C 153.195312 229.105469 153.101562 229.117188 153.007812 229.117188 M 153.289062 229.082031 C 153.292969 229.082031 153.296875 229.082031 153.296875 229.082031 L 155.46875 228.519531 L 153.296875 229.082031 C 153.296875 229.082031 153.292969 229.082031 153.289062 229.082031 " fill-opacity="1" fill-rule="nonzero"/><path fill="#21676e" d="M 161.117188 227.058594 C 161.167969 227.046875 161.21875 227.027344 161.265625 227.007812 C 161.21875 227.027344 161.167969 227.046875 161.117188 227.058594 M 161.265625 227.007812 C 161.265625 227.007812 161.265625 227.007812 161.269531 227.007812 C 161.265625 227.007812 161.265625 227.007812 161.265625 227.007812 " fill-opacity="1" fill-rule="nonzero"/><path fill="#bdbcbd" d="M 152.714844 226.824219 L 152.742188 226.816406 L 152.714844 226.824219 " fill-opacity="1" fill-rule="nonzero"/><path fill="#908e8e" d="M 153.007812 229.117188 C 153.003906 229.117188 153.003906 229.117188 153.003906 229.117188 C 152.484375 229.117188 152.011719 228.769531 151.878906 228.246094 C 151.851562 228.144531 151.839844 228.046875 151.839844 227.949219 C 151.84375 227.433594 152.191406 226.960938 152.714844 226.824219 L 152.742188 226.816406 C 152.746094 226.898438 152.757812 226.980469 152.777344 227.0625 C 152.914062 227.589844 153.386719 227.9375 153.90625 227.9375 C 154 227.9375 154.097656 227.925781 154.195312 227.898438 L 161.984375 225.886719 C 162.003906 226.367188 161.722656 226.816406 161.273438 227.003906 C 161.269531 227.007812 161.269531 227.007812 161.269531 227.007812 C 161.265625 227.007812 161.265625 227.007812 161.265625 227.007812 C 161.21875 227.027344 161.167969 227.046875 161.117188 227.058594 C 161.117188 227.058594 161.113281 227.058594 161.113281 227.058594 L 161.027344 227.082031 L 156.683594 228.203125 L 155.46875 228.519531 L 153.296875 229.082031 C 153.296875 229.082031 153.292969 229.082031 153.289062 229.082031 C 153.195312 229.105469 153.101562 229.117188 153.007812 229.117188 " fill-opacity="1" fill-rule="nonzero"/><path fill="#ffffff" d="M 153.511719 226.957031 L 160.664062 225.109375 C 160.664062 225.109375 161.257812 225.089844 161.507812 225.539062 L 153.8125 227.527344 C 153.8125 227.527344 153.414062 227.445312 153.511719 226.957031 " fill-opacity="1" fill-rule="nonzero"/><path fill="#bdbcbc" d="M 163.566406 231.882812 C 163.726562 232.507812 163.351562 233.140625 162.730469 233.304688 L 154.914062 235.324219 C 154.292969 235.488281 153.65625 235.109375 153.492188 234.488281 C 153.332031 233.863281 153.707031 233.230469 154.332031 233.066406 L 162.144531 231.046875 C 162.769531 230.886719 163.402344 231.261719 163.566406 231.882812 " fill-opacity="1" fill-rule="nonzero"/><path fill="#bdbcbd" d="M 154.621094 235.363281 C 154.621094 235.363281 154.621094 235.363281 154.617188 235.363281 C 154.621094 235.363281 154.621094 235.363281 154.621094 235.363281 M 154.621094 235.363281 C 154.714844 235.363281 154.8125 235.351562 154.910156 235.324219 C 154.8125 235.351562 154.714844 235.363281 154.621094 235.363281 " fill-opacity="1" fill-rule="nonzero"/><path fill="#bdbcbd" d="M 162.734375 233.300781 L 162.734375 233.300781 M 162.742188 233.300781 L 162.742188 233.300781 M 162.742188 233.296875 C 162.746094 233.296875 162.75 233.296875 162.75 233.296875 C 162.75 233.296875 162.746094 233.296875 162.742188 233.296875 " fill-opacity="1" fill-rule="nonzero"/><path fill="#21676e" d="M 162.753906 233.296875 C 162.804688 233.28125 162.859375 233.261719 162.90625 233.242188 C 162.859375 233.261719 162.804688 233.28125 162.753906 233.296875 " fill-opacity="1" fill-rule="nonzero"/><path fill="#21676e" d="M 162.910156 233.242188 C 162.910156 233.242188 162.910156 233.238281 162.914062 233.238281 C 162.910156 233.238281 162.910156 233.242188 162.910156 233.242188 M 162.914062 233.238281 C 162.914062 233.238281 162.917969 233.238281 162.917969 233.238281 C 162.917969 233.238281 162.914062 233.238281 162.914062 233.238281 " fill-opacity="1" fill-rule="nonzero"/><path fill="#908e8e" d="M 154.621094 235.363281 C 154.621094 235.363281 154.621094 235.363281 154.617188 235.363281 C 154.101562 235.359375 153.632812 235.015625 153.496094 234.496094 C 153.496094 234.492188 153.492188 234.492188 153.492188 234.488281 C 153.46875 234.390625 153.457031 234.292969 153.457031 234.199219 C 153.453125 233.679688 153.804688 233.203125 154.332031 233.066406 L 154.355469 233.058594 C 154.359375 233.140625 154.371094 233.226562 154.390625 233.308594 C 154.527344 233.832031 155 234.179688 155.519531 234.179688 C 155.617188 234.179688 155.714844 234.167969 155.8125 234.144531 L 163.601562 232.128906 C 163.617188 232.597656 163.351562 233.039062 162.921875 233.234375 C 162.921875 233.238281 162.917969 233.238281 162.917969 233.238281 C 162.917969 233.238281 162.914062 233.238281 162.914062 233.238281 C 162.910156 233.238281 162.910156 233.242188 162.910156 233.242188 C 162.910156 233.242188 162.90625 233.242188 162.90625 233.242188 C 162.859375 233.261719 162.804688 233.28125 162.753906 233.296875 C 162.753906 233.296875 162.753906 233.296875 162.75 233.296875 C 162.75 233.296875 162.746094 233.296875 162.742188 233.296875 C 162.742188 233.296875 162.742188 233.300781 162.742188 233.300781 C 162.738281 233.300781 162.738281 233.300781 162.734375 233.300781 C 162.730469 233.304688 162.730469 233.304688 162.730469 233.304688 L 158.300781 234.449219 L 157.085938 234.761719 L 154.914062 235.324219 C 154.914062 235.324219 154.910156 235.324219 154.910156 235.324219 C 154.8125 235.351562 154.714844 235.363281 154.621094 235.363281 " fill-opacity="1" fill-rule="nonzero"/><path fill="#ffffff" d="M 155.125 233.203125 L 162.28125 231.351562 C 162.28125 231.351562 162.875 231.335938 163.121094 231.78125 L 155.429688 233.773438 C 155.429688 233.773438 155.03125 233.6875 155.125 233.203125 " fill-opacity="1" fill-rule="nonzero"/><path fill="#bdbcbc" d="M 165.179688 238.125 C 165.339844 238.75 164.964844 239.386719 164.34375 239.546875 L 156.53125 241.570312 C 155.90625 241.730469 155.269531 241.355469 155.105469 240.730469 C 154.945312 240.109375 155.320312 239.472656 155.945312 239.3125 L 163.761719 237.289062 C 164.382812 237.128906 165.019531 237.503906 165.179688 238.125 " fill-opacity="1" fill-rule="nonzero"/><path fill="#bdbcbd" d="M 156.238281 241.605469 C 156.234375 241.605469 156.234375 241.605469 156.234375 241.605469 C 156.234375 241.605469 156.234375 241.605469 156.238281 241.605469 M 156.238281 241.605469 C 156.328125 241.605469 156.417969 241.59375 156.511719 241.574219 C 156.417969 241.59375 156.328125 241.605469 156.238281 241.605469 " fill-opacity="1" fill-rule="nonzero"/><path fill="#21676e" d="M 164.53125 239.484375 C 164.53125 239.484375 164.53125 239.480469 164.53125 239.480469 C 164.53125 239.480469 164.53125 239.484375 164.53125 239.484375 M 164.535156 239.480469 C 164.539062 239.480469 164.539062 239.480469 164.539062 239.480469 C 164.539062 239.480469 164.539062 239.480469 164.535156 239.480469 M 164.542969 239.476562 L 164.542969 239.476562 M 164.546875 239.472656 C 164.546875 239.472656 164.550781 239.472656 164.550781 239.472656 C 164.550781 239.472656 164.546875 239.472656 164.546875 239.472656 M 164.554688 239.472656 C 164.554688 239.472656 164.554688 239.472656 164.558594 239.46875 C 164.554688 239.472656 164.554688 239.472656 164.554688 239.472656 M 164.558594 239.46875 C 164.722656 239.390625 164.863281 239.273438 164.972656 239.136719 C 164.863281 239.273438 164.722656 239.390625 164.558594 239.46875 M 164.972656 239.136719 C 164.972656 239.132812 164.972656 239.132812 164.972656 239.132812 C 164.972656 239.132812 164.972656 239.132812 164.972656 239.136719 M 164.976562 239.128906 L 164.976562 239.128906 " fill-opacity="1" fill-rule="nonzero"/><path fill="#908e8e" d="M 156.238281 241.605469 C 156.234375 241.605469 156.234375 241.605469 156.234375 241.605469 C 155.71875 241.605469 155.25 241.257812 155.109375 240.738281 C 155.109375 240.738281 155.109375 240.734375 155.105469 240.730469 C 155.082031 240.636719 155.070312 240.539062 155.070312 240.441406 C 155.070312 239.921875 155.417969 239.449219 155.945312 239.3125 L 155.972656 239.304688 C 155.976562 239.386719 155.984375 239.46875 156.007812 239.550781 C 156.144531 240.074219 156.617188 240.421875 157.132812 240.421875 C 157.230469 240.421875 157.328125 240.410156 157.429688 240.386719 L 165.214844 238.371094 C 165.226562 238.648438 165.140625 238.914062 164.976562 239.128906 C 164.976562 239.128906 164.972656 239.132812 164.972656 239.132812 C 164.972656 239.132812 164.972656 239.132812 164.972656 239.136719 C 164.863281 239.273438 164.722656 239.390625 164.558594 239.46875 C 164.554688 239.472656 164.554688 239.472656 164.554688 239.472656 C 164.554688 239.472656 164.550781 239.472656 164.550781 239.472656 C 164.550781 239.472656 164.546875 239.472656 164.546875 239.472656 C 164.546875 239.472656 164.546875 239.476562 164.542969 239.476562 C 164.539062 239.476562 164.539062 239.476562 164.539062 239.480469 C 164.539062 239.480469 164.539062 239.480469 164.535156 239.480469 C 164.535156 239.480469 164.53125 239.480469 164.53125 239.480469 C 164.53125 239.480469 164.53125 239.484375 164.53125 239.484375 C 164.527344 239.484375 164.527344 239.484375 164.527344 239.484375 C 164.523438 239.484375 164.523438 239.484375 164.519531 239.484375 C 164.464844 239.511719 164.410156 239.53125 164.347656 239.546875 C 164.347656 239.546875 164.347656 239.546875 164.34375 239.546875 L 159.914062 240.695312 L 158.699219 241.007812 L 156.53125 241.570312 C 156.523438 241.570312 156.519531 241.570312 156.511719 241.574219 C 156.417969 241.59375 156.328125 241.605469 156.238281 241.605469 " fill-opacity="1" fill-rule="nonzero"/><path fill="#ffffff" d="M 156.738281 239.445312 L 163.894531 237.59375 C 163.894531 237.59375 164.488281 237.578125 164.738281 238.023438 L 157.042969 240.015625 C 157.042969 240.015625 156.644531 239.933594 156.738281 239.445312 " fill-opacity="1" fill-rule="nonzero"/><path fill="#bdbcbc" d="M 166.773438 244.28125 C 166.933594 244.90625 166.558594 245.542969 165.9375 245.703125 L 158.121094 247.726562 C 157.5 247.886719 156.859375 247.511719 156.699219 246.886719 C 156.539062 246.265625 156.914062 245.628906 157.539062 245.46875 L 165.351562 243.449219 C 165.976562 243.285156 166.613281 243.660156 166.773438 244.28125 " fill-opacity="1" fill-rule="nonzero"/><path fill="#bdbcbd" d="M 157.828125 247.761719 L 157.828125 247.761719 M 157.828125 247.761719 C 157.921875 247.761719 158.019531 247.75 158.117188 247.726562 C 158.019531 247.75 157.921875 247.761719 157.828125 247.761719 " fill-opacity="1" fill-rule="nonzero"/><path fill="#908e8e" d="M 157.828125 247.761719 C 157.320312 247.761719 156.855469 247.425781 156.710938 246.917969 C 156.710938 246.917969 156.707031 246.917969 156.707031 246.914062 C 156.707031 246.914062 156.707031 246.914062 156.707031 246.910156 C 156.703125 246.90625 156.703125 246.894531 156.699219 246.886719 C 156.675781 246.792969 156.664062 246.691406 156.664062 246.597656 C 156.664062 246.078125 157.011719 245.605469 157.539062 245.46875 L 157.5625 245.460938 C 157.566406 245.542969 157.578125 245.625 157.601562 245.707031 C 157.734375 246.230469 158.210938 246.582031 158.726562 246.582031 C 158.824219 246.582031 158.921875 246.570312 159.019531 246.542969 L 166.808594 244.527344 C 166.832031 245.066406 166.476562 245.5625 165.9375 245.703125 L 161.507812 246.847656 L 160.292969 247.164062 L 158.121094 247.726562 C 158.121094 247.726562 158.117188 247.726562 158.117188 247.726562 C 158.019531 247.75 157.921875 247.761719 157.828125 247.761719 " fill-opacity="1" fill-rule="nonzero"/><path fill="#ffffff" d="M 158.332031 245.601562 L 165.488281 243.75 C 165.488281 243.75 166.082031 243.738281 166.328125 244.183594 L 158.632812 246.171875 C 158.632812 246.171875 158.238281 246.089844 158.332031 245.601562 " fill-opacity="1" fill-rule="nonzero"/><path fill="#bdbcbc" d="M 168.378906 250.5 C 168.542969 251.121094 168.167969 251.757812 167.542969 251.917969 L 159.730469 253.941406 C 159.105469 254.101562 158.46875 253.726562 158.308594 253.101562 C 158.148438 252.480469 158.523438 251.84375 159.144531 251.683594 L 166.960938 249.660156 C 167.585938 249.5 168.21875 249.875 168.378906 250.5 " fill-opacity="1" fill-rule="nonzero"/><path fill="#bdbcbd" d="M 159.4375 253.976562 C 159.433594 253.976562 159.433594 253.976562 159.433594 253.976562 C 159.433594 253.976562 159.433594 253.976562 159.4375 253.976562 M 159.4375 253.976562 C 159.53125 253.976562 159.621094 253.964844 159.714844 253.941406 C 159.621094 253.964844 159.53125 253.976562 159.4375 253.976562 M 159.722656 253.941406 C 159.726562 253.941406 159.726562 253.941406 159.730469 253.941406 L 161.902344 253.378906 L 159.730469 253.941406 C 159.726562 253.941406 159.726562 253.941406 159.722656 253.941406 " fill-opacity="1" fill-rule="nonzero"/><path fill="#bdbcbd" d="M 167.550781 251.914062 L 167.550781 251.914062 M 167.554688 251.914062 C 167.554688 251.914062 167.558594 251.914062 167.558594 251.914062 C 167.558594 251.914062 167.554688 251.914062 167.554688 251.914062 M 167.558594 251.914062 C 167.5625 251.914062 167.5625 251.914062 167.566406 251.914062 C 167.5625 251.914062 167.5625 251.914062 167.558594 251.914062 M 167.566406 251.914062 C 167.605469 251.902344 167.644531 251.886719 167.683594 251.871094 C 167.644531 251.886719 167.605469 251.902344 167.566406 251.914062 M 167.683594 251.871094 C 167.683594 251.871094 167.683594 251.871094 167.6875 251.871094 C 167.683594 251.871094 167.683594 251.871094 167.683594 251.871094 M 167.6875 251.871094 C 167.691406 251.871094 167.691406 251.867188 167.691406 251.867188 C 167.691406 251.867188 167.691406 251.871094 167.6875 251.871094 M 167.695312 251.867188 C 167.695312 251.867188 167.695312 251.867188 167.699219 251.867188 C 167.695312 251.867188 167.695312 251.867188 167.695312 251.867188 M 167.703125 251.867188 C 167.703125 251.867188 167.703125 251.863281 167.703125 251.863281 C 167.703125 251.863281 167.703125 251.867188 167.703125 251.867188 " fill-opacity="1" fill-rule="nonzero"/><path fill="#908e8e" d="M 159.4375 253.976562 C 159.433594 253.976562 159.433594 253.976562 159.433594 253.976562 C 158.921875 253.976562 158.457031 253.636719 158.3125 253.121094 C 158.3125 253.117188 158.3125 253.113281 158.308594 253.113281 C 158.308594 253.109375 158.308594 253.105469 158.308594 253.101562 C 158.28125 253.007812 158.269531 252.910156 158.269531 252.8125 C 158.269531 252.292969 158.617188 251.820312 159.144531 251.683594 L 159.171875 251.675781 C 159.175781 251.757812 159.1875 251.839844 159.207031 251.921875 C 159.34375 252.445312 159.816406 252.796875 160.335938 252.796875 C 160.429688 252.796875 160.53125 252.78125 160.628906 252.757812 L 168.414062 250.742188 C 168.4375 251.226562 168.152344 251.675781 167.703125 251.863281 C 167.703125 251.863281 167.703125 251.867188 167.703125 251.867188 C 167.699219 251.867188 167.699219 251.867188 167.699219 251.867188 C 167.695312 251.867188 167.695312 251.867188 167.695312 251.867188 C 167.695312 251.867188 167.695312 251.867188 167.691406 251.867188 C 167.691406 251.867188 167.691406 251.871094 167.6875 251.871094 C 167.683594 251.871094 167.683594 251.871094 167.683594 251.871094 C 167.644531 251.886719 167.605469 251.902344 167.566406 251.914062 C 167.5625 251.914062 167.5625 251.914062 167.558594 251.914062 C 167.558594 251.914062 167.554688 251.914062 167.554688 251.914062 C 167.554688 251.914062 167.550781 251.914062 167.550781 251.914062 C 167.546875 251.917969 167.546875 251.917969 167.542969 251.917969 L 163.113281 253.066406 L 161.902344 253.378906 L 159.730469 253.941406 C 159.726562 253.941406 159.726562 253.941406 159.722656 253.941406 C 159.722656 253.941406 159.71875 253.941406 159.714844 253.941406 C 159.621094 253.964844 159.53125 253.976562 159.4375 253.976562 " fill-opacity="1" fill-rule="nonzero"/><path fill="#ffffff" d="M 159.941406 251.816406 L 167.09375 249.964844 C 167.09375 249.964844 167.6875 249.949219 167.9375 250.394531 L 160.242188 252.386719 C 160.242188 252.386719 159.84375 252.304688 159.941406 251.816406 " fill-opacity="1" fill-rule="nonzero"/><path fill="#918f8f" d="M 184.792969 239.855469 L 185.953125 240.882812 C 185.953125 240.882812 186.546875 241.085938 186.527344 240.410156 L 185.769531 239.105469 L 184.792969 239.855469 " fill-opacity="1" fill-rule="nonzero"/><path fill="#bdbcbc" d="M 177.582031 233.449219 L 184.566406 240.125 C 184.566406 240.125 185.667969 239.789062 186.117188 238.851562 L 180.945312 230.691406 L 177.582031 233.449219 " fill-opacity="1" fill-rule="nonzero"/><path fill="#2a2f38" d="M 181.152344 230.519531 C 178.082031 224.105469 175.789062 221.601562 175.789062 221.601562 L 122.574219 156.679688 L 119.957031 158.824219 L 119.085938 159.539062 L 116.464844 161.683594 L 169.679688 226.609375 C 169.679688 226.609375 171.683594 229.351562 177.371094 233.621094 C 177.371094 233.621094 179.847656 233.183594 181.152344 230.519531 " fill-opacity="1" fill-rule="nonzero"/><path fill="#424652" d="M 178.867188 228.222656 C 177.730469 228.222656 176.476562 227.847656 175.53125 227.257812 L 126.992188 168.035156 C 127.457031 167.636719 127.933594 167.179688 128.414062 166.65625 L 178.871094 228.222656 C 178.871094 228.222656 178.867188 228.222656 178.867188 228.222656 " fill-opacity="1" fill-rule="nonzero"/><path fill="#bdbcbd" d="M 181.152344 230.519531 C 181.144531 230.5 181.132812 230.480469 181.125 230.460938 C 181.132812 230.480469 181.144531 230.5 181.152344 230.519531 " fill-opacity="1" fill-rule="nonzero"/><path fill="#20232a" d="M 177.371094 233.621094 C 176.105469 232.667969 175.019531 231.792969 174.097656 231.007812 C 174.003906 230.925781 173.914062 230.847656 173.820312 230.769531 C 172.167969 229.335938 171.078125 228.21875 170.433594 227.507812 C 170.351562 227.414062 170.277344 227.328125 170.210938 227.253906 C 169.84375 226.835938 169.679688 226.609375 169.679688 226.609375 L 165.136719 221.0625 L 164.246094 219.980469 L 158.707031 213.21875 L 158.40625 212.855469 L 155.203125 208.945312 L 154.558594 208.160156 L 154.242188 207.773438 L 153.800781 207.238281 L 150.78125 203.550781 L 150.136719 202.765625 L 149.820312 202.378906 L 149.378906 201.84375 L 146.320312 198.105469 L 145.511719 197.121094 L 144.816406 196.273438 L 144.691406 196.121094 L 123.503906 170.269531 C 123.96875 170.066406 124.628906 169.738281 125.390625 169.238281 L 170.0625 223.742188 C 170.0625 223.742188 172.066406 226.484375 177.753906 230.753906 C 177.753906 230.753906 179.21875 230.492188 180.484375 229.164062 C 180.695312 229.578125 180.90625 230.007812 181.125 230.460938 C 181.132812 230.480469 181.144531 230.5 181.152344 230.519531 C 181.105469 230.613281 181.058594 230.707031 181.011719 230.792969 C 179.972656 232.675781 178.347656 233.339844 177.679688 233.542969 C 177.484375 233.597656 177.371094 233.621094 177.371094 233.621094 " fill-opacity="1" fill-rule="nonzero"/><path fill="#2289b4" d="M 121.273438 153.917969 L 130.027344 164.605469 C 126.816406 169.367188 122.773438 170.550781 122.773438 170.550781 L 114.015625 159.867188 C 114.015625 159.867188 115.589844 156.449219 121.273438 153.917969 " fill-opacity="1" fill-rule="nonzero"/><path fill="#3e9dc4" d="M 128.503906 166.546875 L 119.082031 155.050781 C 119.273438 154.9375 119.476562 154.824219 119.6875 154.714844 L 128.953125 166.019531 C 128.804688 166.203125 128.65625 166.378906 128.503906 166.546875 " fill-opacity="1" fill-rule="nonzero"/><path fill="#3e9dc4" d="M 129.304688 165.574219 L 120.191406 154.453125 C 120.339844 154.375 120.484375 154.300781 120.640625 154.226562 L 129.613281 165.171875 C 129.511719 165.3125 129.410156 165.441406 129.304688 165.574219 " fill-opacity="1" fill-rule="nonzero"/><path fill="#1a6689" d="M 122.773438 170.550781 L 114.015625 159.867188 C 114.015625 159.867188 114.5 158.820312 115.890625 157.460938 C 117.945312 161.738281 122.308594 165.0625 126.683594 166.347656 C 127.277344 166.519531 127.839844 166.625 128.390625 166.671875 C 125.59375 169.714844 122.773438 170.550781 122.773438 170.550781 " fill-opacity="1" fill-rule="nonzero"/><path fill="#2a2f38" d="M 125.652344 159.261719 L 118.394531 165.207031 L 117.039062 163.554688 L 124.296875 157.605469 L 125.652344 159.261719 " fill-opacity="1" fill-rule="nonzero"/><path fill="#185d7e" d="M 141.640625 183.15625 C 142.101562 183.71875 141.8125 184.71875 141 185.386719 C 140.183594 186.054688 139.148438 186.140625 138.6875 185.578125 L 118.355469 160.773438 C 117.894531 160.210938 118.183594 159.214844 119 158.546875 C 119.816406 157.878906 120.851562 157.789062 121.3125 158.351562 L 141.640625 183.15625 " fill-opacity="1" fill-rule="nonzero"/><path fill="#918f8f" d="M 215.65625 247.90625 L 215.90625 249.433594 C 215.90625 249.433594 216.234375 249.96875 216.644531 249.433594 L 216.886719 247.945312 L 215.65625 247.90625 " fill-opacity="1" fill-rule="nonzero"/><path fill="#bdbcbc" d="M 214.140625 238.378906 L 215.308594 247.972656 C 215.308594 247.972656 216.375 248.410156 217.320312 247.972656 L 218.488281 238.378906 L 214.140625 238.378906 " fill-opacity="1" fill-rule="nonzero"/><path fill="#2a2f38" d="M 218.757812 238.378906 C 220.453125 231.472656 220.261719 228.082031 220.261719 228.082031 L 220.261719 144.136719 L 212.363281 144.136719 L 212.363281 228.082031 C 212.363281 228.082031 212.179688 231.472656 213.871094 238.378906 C 213.871094 238.378906 216.066406 239.613281 218.757812 238.378906 " fill-opacity="1" fill-rule="nonzero"/><path fill="#424652" d="M 218.453125 235.15625 C 217.574219 234.433594 216.835938 233.351562 216.480469 232.292969 L 216.480469 155.71875 C 217.09375 155.703125 217.753906 155.652344 218.453125 155.554688 L 218.453125 235.15625 " fill-opacity="1" fill-rule="nonzero"/><path fill="#bdbcbd" d="M 218.476562 238.5 C 218.570312 238.464844 218.664062 238.421875 218.757812 238.378906 C 218.796875 238.234375 218.828125 238.089844 218.863281 237.945312 C 218.832031 238.089844 218.796875 238.234375 218.757812 238.378906 C 218.664062 238.421875 218.570312 238.464844 218.476562 238.5 " fill-opacity="1" fill-rule="nonzero"/><path fill="#20232a" d="M 216.292969 238.925781 C 215.230469 238.925781 214.421875 238.632812 214.066406 238.472656 C 213.9375 238.417969 213.871094 238.378906 213.871094 238.378906 C 213.859375 238.328125 213.84375 238.273438 213.832031 238.222656 C 213.476562 236.753906 213.203125 235.445312 213 234.300781 C 212.980469 234.199219 212.960938 234.101562 212.945312 234.003906 C 212.648438 232.296875 212.5 230.960938 212.425781 229.996094 C 212.417969 229.890625 212.410156 229.785156 212.40625 229.691406 C 212.367188 229.105469 212.359375 228.683594 212.359375 228.417969 C 212.359375 228.191406 212.363281 228.082031 212.363281 228.082031 L 212.363281 155.238281 C 212.855469 155.375 213.574219 155.535156 214.480469 155.632812 L 214.480469 226.109375 C 214.480469 226.109375 214.289062 229.5 215.984375 236.40625 C 215.984375 236.40625 216.960938 236.949219 218.40625 236.949219 C 218.628906 236.949219 218.859375 236.9375 219.101562 236.90625 C 219.027344 237.246094 218.949219 237.589844 218.863281 237.945312 C 218.828125 238.089844 218.796875 238.234375 218.757812 238.378906 C 218.664062 238.421875 218.570312 238.464844 218.476562 238.5 C 217.683594 238.816406 216.941406 238.925781 216.292969 238.925781 " fill-opacity="1" fill-rule="nonzero"/><path fill="#ed3947" d="M 221.007812 141.175781 L 221.007812 154.992188 C 215.5 156.636719 211.625 154.992188 211.625 154.992188 L 211.625 141.175781 C 211.625 141.175781 215.007812 139.53125 221.007812 141.175781 " fill-opacity="1" fill-rule="nonzero"/><path fill="#ef525b" d="M 218.597656 155.527344 L 218.597656 140.664062 C 218.816406 140.695312 219.042969 140.738281 219.277344 140.785156 L 219.277344 155.402344 C 219.046875 155.449219 218.816406 155.492188 218.597656 155.527344 " fill-opacity="1" fill-rule="nonzero"/><path fill="#ef525b" d="M 219.828125 155.28125 L 219.828125 140.902344 C 219.996094 140.9375 220.15625 140.972656 220.324219 141.011719 L 220.324219 155.167969 C 220.15625 155.210938 219.996094 155.246094 219.828125 155.28125 " fill-opacity="1" fill-rule="nonzero"/><path fill="#b02932" d="M 216.125 155.714844 C 213.347656 155.714844 211.625 154.992188 211.625 154.992188 L 211.625 141.175781 C 211.625 141.175781 212.660156 140.675781 214.597656 140.503906 C 213.476562 145.117188 214.742188 150.449219 217.3125 154.21875 C 217.660156 154.730469 218.03125 155.167969 218.429688 155.554688 C 217.597656 155.667969 216.828125 155.714844 216.125 155.714844 " fill-opacity="1" fill-rule="nonzero"/><path fill="#2a2f38" d="M 221.007812 148.085938 L 211.625 148.085938 L 211.625 145.945312 L 221.007812 145.945312 L 221.007812 148.085938 " fill-opacity="1" fill-rule="nonzero"/><path fill="#a61e23" d="M 218.222656 176.703125 C 218.222656 177.429688 217.371094 178.019531 216.316406 178.019531 C 215.261719 178.019531 214.40625 177.429688 214.40625 176.703125 L 214.40625 144.628906 C 214.40625 143.902344 215.261719 143.3125 216.316406 143.3125 C 217.371094 143.3125 218.222656 143.902344 218.222656 144.628906 L 218.222656 176.703125 " fill-opacity="1" fill-rule="nonzero"/></svg>