<svg xmlns="http://www.w3.org/2000/svg" xmlns:xlink="http://www.w3.org/1999/xlink" width="500" zoomAndPan="magnify" viewBox="0 0 375 374.999991" height="500" preserveAspectRatio="xMidYMid meet" version="1.0"><defs><clipPath id="f4951ab159"><path d="M 100.855469 112.5 L 250.855469 112.5 L 250.855469 262.5 L 100.855469 262.5 Z M 100.855469 112.5 " clip-rule="nonzero"/></clipPath></defs><g clip-path="url(#f4951ab159)"><path fill="#a6a6a6" d="M 175.855469 112.5 C 134.523438 112.5 100.855469 146.167969 100.855469 187.5 C 100.855469 228.832031 134.523438 262.5 175.855469 262.5 C 217.1875 262.5 250.855469 228.832031 250.855469 187.5 C 250.855469 146.167969 217.1875 112.5 175.855469 112.5 Z M 175.855469 127.5 C 209.078125 127.5 235.855469 154.273438 235.855469 187.5 C 235.855469 220.726562 209.078125 247.5 175.855469 247.5 C 142.628906 247.5 115.855469 220.726562 115.855469 187.5 C 115.855469 154.273438 142.628906 127.5 175.855469 127.5 Z M 175.855469 127.5 " fill-opacity="1" fill-rule="nonzero"/></g></svg>